<mxfile host="app.diagrams.net" modified="2024-02-17T23:24:02.005Z" agent="Mozilla/5.0 (Windows NT 10.0; Win64; x64) AppleWebKit/537.36 (KHTML, like Gecko) Chrome/121.0.0.0 Safari/537.36" version="23.1.5" etag="i7g-kgqKoH2Am6WOyS5s" type="github">
  <diagram name="PÃ¡gina-1" id="Z5JcM9Wtua0QIUxYjrmq">
    <mxGraphModel>
      <root>
        <mxCell id="0" />
        <mxCell id="1" parent="0" />
      </root>
    </mxGraphModel>
  </diagram>
</mxfile>
